<svg xmlns="http://www.w3.org/2000/svg" width="32.469" height="31.438" viewBox="0 0 32.469 31.438">
  <defs>
    <style>
      .cls-1 {
        fill: #ffde00;
        fill-rule: evenodd;
      }
    </style>
  </defs>
  <path id="Forma_1" data-name="Forma 1" class="cls-1" d="M672.285,27.1a1.059,1.059,0,0,0-.673-0.457,1.112,1.112,0,0,0-1.29.766,5.36,5.36,0,0,1-.438,1.053l-7.65-7.412a5.31,5.31,0,0,1,1.079-.412,1.05,1.05,0,0,0,.809-1.253,1.084,1.084,0,0,0-1.309-.79c-0.087.021-8.57,2.166-7.176,13.9-0.557-.036-1.112-0.052-1.657-0.052-9.891,0-13.675,6.022-13.83,6.276a1.011,1.011,0,0,0,.15,1.263,1.241,1.241,0,0,0,.237.183,1.164,1.164,0,0,0,1.471-.368,7.533,7.533,0,0,1,.951-1.155l8.776,8.507a7.7,7.7,0,0,1-1.182.914,1.038,1.038,0,0,0-.38,1.444,1.053,1.053,0,0,0,.17.208,1.125,1.125,0,0,0,.773.294,1.091,1.091,0,0,0,.538-0.138c0.295-.171,7.174-4.261,6.425-15.01a23.665,23.665,0,0,0,2.638.154c9.837,0,11.691-7.039,11.71-7.115A1.023,1.023,0,0,0,672.285,27.1ZM655.756,39.254L651.1,34.742a21.7,21.7,0,0,1,4.788-.129A19.345,19.345,0,0,1,655.756,39.254Zm-11-2.123a14.289,14.289,0,0,1,3.532-1.734l0.223-.1,6.637,6.467-0.09.258a13.434,13.434,0,0,1-1.725,3.316l-0.224.254-8.547-8.311Zm12.95-8.7,4.543,4.417a20.071,20.071,0,0,1-4.4-.124A18.492,18.492,0,0,1,657.709,28.426Zm7.16,3.913L658.2,25.933l0.018-.056a8.472,8.472,0,0,1,2.06-3.434l0.034-.036,8.2,7.831-0.088.106a8.929,8.929,0,0,1-3.443,1.975Z" transform="translate(-640 -18.563)"/>
</svg>
