<svg xmlns="http://www.w3.org/2000/svg" width="25.25" height="30.844" viewBox="0 0 25.25 30.844">
  <defs>
    <style>
      .cls-1 {
        fill: #ffde00;
        fill-rule: evenodd;
      }
    </style>
  </defs>
  <path class="cls-1" d="M852.149,27.578a0.768,0.768,0,0,0-.767-0.764h-6.151a0.764,0.764,0,1,0,0,1.528h6.151A0.767,0.767,0,0,0,852.149,27.578Zm16.8-.764H862.8a0.764,0.764,0,1,0,0,1.528h6.15A0.764,0.764,0,1,0,868.95,26.814Zm-11.859-4.158a0.768,0.768,0,0,0,.767-0.765V15.764a0.767,0.767,0,0,0-1.534,0v6.126A0.768,0.768,0,0,0,857.091,22.655Zm4.034,1.669a0.781,0.781,0,0,0,.543-0.223l4.354-4.337a0.767,0.767,0,0,0-1.087-1.082l-4.354,4.336a0.764,0.764,0,0,0,0,1.083A0.8,0.8,0,0,0,861.125,24.324Zm-8.612-.223a0.771,0.771,0,0,0,.544.223A0.781,0.781,0,0,0,853.6,24.1a0.762,0.762,0,0,0,0-1.083l-4.354-4.336a0.767,0.767,0,0,0-1.086,1.082Zm13.8,8.3a3.189,3.189,0,0,0-2.065-.771h-4.393V28.539a3.719,3.719,0,0,0-1.316-3.2,4.129,4.129,0,0,0-3.338-.414,0.766,0.766,0,0,0-.537.726V29.38a3.433,3.433,0,0,1-1.624,2.866,6.512,6.512,0,0,1-1.764.885l-0.077.02a1.569,1.569,0,0,0-1.182-.529H847.1a1.58,1.58,0,0,0-1.579,1.574v9.527A1.58,1.58,0,0,0,847.1,45.3h2.928a1.561,1.561,0,0,0,1.01-.369,3.23,3.23,0,0,0,2.251.923h9.161a4.22,4.22,0,0,0,2.353-.637,3.371,3.371,0,0,0,1.425-2.465l1.183-7.324A3.284,3.284,0,0,0,866.31,32.4ZM850.071,43.722a0.044,0.044,0,0,1-.045.045H847.1a0.043,0.043,0,0,1-.044-0.045V34.2a0.043,0.043,0,0,1,.044-0.045h2.928a0.043,0.043,0,0,1,.045.045v9.527Zm15.823-8.534-1.183,7.336a0.076,0.076,0,0,1-.006.032c-0.051.44-.218,1.77-2.257,1.77h-9.161a1.7,1.7,0,0,1-1.662-1.42c-0.007-.032-0.013-0.064-0.02-0.09V34.628l0.045-.013c0.013,0,.019-0.006.032-0.006a7.834,7.834,0,0,0,2.212-1.089,4.982,4.982,0,0,0,2.3-4.139v-3.1a2.1,2.1,0,0,1,1.432.287,2.318,2.318,0,0,1,.69,1.961v3.853a0.768,0.768,0,0,0,.767.764h5.16a1.681,1.681,0,0,1,1.067.4A1.791,1.791,0,0,1,865.894,35.188Z" transform="translate(-844.469 -15)"/>
</svg>
