<svg xmlns="http://www.w3.org/2000/svg" width="21" height="21" viewBox="0 0 21 21">
  <defs>
    <style>
      .cls-1 {
        fill: #fff;
        fill-rule: evenodd;
      }
    </style>
  </defs>
  <path id="Forma_1" data-name="Forma 1" class="cls-1" d="M1379.5,22.312a9.187,9.187,0,1,1-9.19,9.187,9.2,9.2,0,0,1,9.19-9.187m0-1.313A10.5,10.5,0,1,0,1390,31.5,10.5,10.5,0,0,0,1379.5,21h0Zm5.85,14.011-0.06-.18a1.635,1.635,0,0,0-1.01-.959l-1.55-.424a1.524,1.524,0,0,0-1.33.349l-0.56.562a5.988,5.988,0,0,1-4.2-4.194l0.57-.561a1.524,1.524,0,0,0,.34-1.33l-0.42-1.552a1.657,1.657,0,0,0-.96-1.015l-0.18-.059a1.4,1.4,0,0,0-1.31.31l-0.84.841a1.594,1.594,0,0,0-.25.577,9.925,9.925,0,0,0,10.01,10.03,1.565,1.565,0,0,0,.6-0.244l0.84-.841A1.393,1.393,0,0,0,1385.35,35.011Z" transform="translate(-1369 -21)"/>
</svg>
