<?xml version="1.0" encoding="UTF-8" standalone="no"?>
<!-- Created with Inkscape (http://www.inkscape.org/) -->

<svg
   xmlns:dc="http://purl.org/dc/elements/1.1/"
   xmlns:cc="http://creativecommons.org/ns#"
   xmlns:rdf="http://www.w3.org/1999/02/22-rdf-syntax-ns#"
   xmlns:svg="http://www.w3.org/2000/svg"
   xmlns="http://www.w3.org/2000/svg"
   xmlns:sodipodi="http://sodipodi.sourceforge.net/DTD/sodipodi-0.dtd"
   xmlns:inkscape="http://www.inkscape.org/namespaces/inkscape"
   viewBox="0 0 1973.9999 88"
   preserveAspectRatio="none"
   id="svg3352"
   version="1.1"
   inkscape:version="0.91 r13725"
   sodipodi:docname="mywave2.svg">
  <defs
     id="defs3354">
    <style
       id="style3364">
      .cls-1 {
        fill: #dedede;
        fill-rule: evenodd;
      }
    </style>
  </defs>
  <sodipodi:namedview
     id="base"
     pagecolor="#ffffff"
     bordercolor="#666666"
     borderopacity="1.0"
     inkscape:pageopacity="0.0"
     inkscape:pageshadow="2"
     inkscape:zoom="0.49497475"
     inkscape:cx="948.83769"
     inkscape:cy="-130.6324"
     inkscape:document-units="px"
     inkscape:current-layer="layer1"
     showgrid="false"
     units="px"
     showborder="true"
     inkscape:window-width="1920"
     inkscape:window-height="1178"
     inkscape:window-x="-8"
     inkscape:window-y="-8"
     inkscape:window-maximized="1"
     fit-margin-top="0"
     fit-margin-left="0"
     fit-margin-right="0"
     fit-margin-bottom="0" />
  <metadata
     id="metadata3357">
    <rdf:RDF>
      <cc:Work
         rdf:about="">
        <dc:format>image/svg+xml</dc:format>
        <dc:type
           rdf:resource="http://purl.org/dc/dcmitype/StillImage" />
        <dc:title></dc:title>
      </cc:Work>
    </rdf:RDF>
  </metadata>
  <g
     inkscape:label="Layer 1"
     inkscape:groupmode="layer"
     id="layer1"
     transform="translate(-27.571469,-538.42504)">
    <path
       style="fill:#dedede;fill-rule:evenodd"
       inkscape:connector-curvature="0"
       class="cls-1"
       d="m 2001.5714,626.42504 -1973.999931,0 0,-60.70086 c 0,0 46.479485,6.68877 107.769981,12.20734 24.03727,2.1643 56.35261,3.84099 83.03572,4.31472 84.88195,1.50698 157.32672,-1.74649 246.29426,-8.63003 39.32363,-3.04252 98.83971,-8.92865 125.90004,-11.26292 59.66474,-5.14678 114.39276,-9.66907 143.4481,-11.8731 48.19025,-3.65553 188.05446,-12.05515 297.55193,-12.05515 114.5667,0 214.8098,14.28037 321.655,28.32359 36.6111,4.812 122.4768,13.70434 197.3459,14.14543 41.9254,0.24712 105.8341,-0.0959 142.999,-1.21914 45.7118,-1.3815 102.5888,-3.49324 153.2448,-5.99485 76.8077,-3.79309 154.7552,-8.56601 154.7552,-8.56601 z"
       id="path3374"
       sodipodi:nodetypes="cccsssssssssscc" />
  </g>
</svg>
