<svg xmlns="http://www.w3.org/2000/svg" width="27.03" height="29.656" viewBox="0 0 27.03 29.656">
  <defs>
    <style>
      .cls-1 {
        fill: #ffde00;
        fill-rule: evenodd;
      }
    </style>
  </defs>
  <path id="Forma_1" data-name="Forma 1" class="cls-1" d="M1031.88,27.037l0.9-.872a0.687,0.687,0,0,0,.76-0.13l0.15-.155a0.636,0.636,0,0,0,0-.931l-1.14-1.117a0.693,0.693,0,0,0-.96,0l-0.16.155a0.653,0.653,0,0,0,0,.931l0.04,0.034-0.83.808a13.628,13.628,0,0,0-7.94-3.438v-0.8h0.12a1.106,1.106,0,0,0,1.12-1.094V20.058a1.106,1.106,0,0,0-1.12-1.094h-2.69a1.115,1.115,0,0,0-1.13,1.094v0.365a1.115,1.115,0,0,0,1.13,1.094h0.12v0.8a13.163,13.163,0,0,0,.48,26.292q0.375,0.021.75,0.02a13.375,13.375,0,0,0,13.5-12.457A12.911,12.911,0,0,0,1031.88,27.037Zm1.3,9.039a11.726,11.726,0,1,1-11.72-12.055q0.33,0,.66.017A11.553,11.553,0,0,1,1033.18,36.076Zm-1.28-.743h-0.73c0-.021.01-0.038,0.01-0.059a1.5,1.5,0,0,0-1.52-1.476h-5.88a3.089,3.089,0,0,0-2.65-1.5l-0.05,0V24.793A10.68,10.68,0,0,1,1031.9,35.333Zm-1.6-.222a0.611,0.611,0,0,1-.62.6h-6.47a2.094,2.094,0,1,1,0-1.2h6.47A0.611,0.611,0,0,1,1030.3,35.111Z" transform="translate(-1007.97 -18.969)"/>
</svg>
