<svg xmlns="http://www.w3.org/2000/svg" width="67" height="6.406" viewBox="0 0 67 6.406">
  <defs>
    <style>
      .cls-1 {
        fill: #525171;
        fill-rule: evenodd;
      }
    </style>
  </defs>
  <path class="cls-1" d="M945.864,246.174a5.125,5.125,0,0,1-3.856-1.793,7.294,7.294,0,0,0-10.782,0,5.043,5.043,0,0,1-7.712,0,7.293,7.293,0,0,0-10.782,0,5.045,5.045,0,0,1-7.712,0,7.293,7.293,0,0,0-10.782,0,5.042,5.042,0,0,1-7.711,0A7.3,7.3,0,0,0,881.136,242a1.118,1.118,0,1,0,0,2.236,5.125,5.125,0,0,1,3.856,1.793,7.292,7.292,0,0,0,10.782,0,5.042,5.042,0,0,1,7.711,0,7.293,7.293,0,0,0,10.782,0,5.043,5.043,0,0,1,7.711,0,7.294,7.294,0,0,0,10.783,0,5.043,5.043,0,0,1,7.712,0,7.3,7.3,0,0,0,5.391,2.381A1.119,1.119,0,1,0,945.864,246.174Z" transform="translate(-880 -242)"/>
</svg>
